<svg xmlns="http://www.w3.org/2000/svg" width="570" height="140" viewBox="0 0 570 140">
  <defs>
    <filter id="glow" x="-20%" y="-20%" width="140%" height="140%">
      <feGaussianBlur stdDeviation="2.5" result="blur" />
      <feComposite in="SourceGraphic" in2="blur" operator="over" />
    </filter>
    <linearGradient id="card-bg" x1="0" y1="0" x2="1" y2="1">
      <stop offset="0%" stop-color="#0B0E14" />
      <stop offset="100%" stop-color="#07080C" />
    </linearGradient>
  </defs>

  <!-- Outer Card Frame -->
  <rect x="2" y="2" width="566" height="136" rx="14" fill="url(#card-bg)" stroke="#FF3347" stroke-width="1.2" stroke-opacity="0.5" />
  
  <!-- Corner Accent Ticks -->
  <path d="M 2 30 L 2 14 Q 2 2 14 2 L 30 2" fill="none" stroke="#FF3347" stroke-width="2.5" stroke-linecap="round" />
  <path d="M 540 2 L 556 2 Q 568 2 568 14 L 568 30" fill="none" stroke="#FF3347" stroke-width="2.5" stroke-linecap="round" />
  <path d="M 2 110 L 2 126 Q 2 138 14 138 L 30 138" fill="none" stroke="#FF3347" stroke-width="2.5" stroke-linecap="round" />
  <path d="M 540 138 L 556 138 Q 568 138 568 126 L 568 110" fill="none" stroke="#FF3347" stroke-width="2.5" stroke-linecap="round" />

  <!-- Left Icon Container -->
  <rect x="28" y="28" width="84" height="84" rx="12" fill="#050609" stroke="#FF3347" stroke-width="1.2" stroke-opacity="0.6" />
  
  <!-- Envelope Icon -->
  <g transform="translate(42, 42)">
    <rect x="6" y="12" width="44" height="32" rx="4" stroke="#FF3347" stroke-width="2.2" fill="none" filter="url(#glow)"/>
    <path d="M 6 15 L 28 31 L 50 15" stroke="#FF3347" stroke-width="2.2" stroke-linecap="round" stroke-linejoin="round" fill="none"/>
    <path d="M 6 42 L 20 28 M 50 42 L 36 28" stroke="#FF3347" stroke-width="1.6" stroke-linecap="round" fill="none" opacity="0.6"/>
  </g>

  <!-- Card Information -->
  <g transform="translate(136, 0)">
    <text x="0" y="60" font-family="'JetBrains Mono', 'Segoe UI', monospace" font-size="20" font-weight="900" fill="#F2F2F4" letter-spacing="2">EMAIL</text>
    <text x="0" y="88" font-family="'JetBrains Mono', 'Segoe UI', monospace" font-size="15" font-weight="500" fill="#858994" letter-spacing="0.5">contact@arpanstudio.dev</text>
  </g>

  <!-- Right External Link Icon -->
  <g transform="translate(515, 36)">
    <rect x="0" y="0" width="28" height="28" rx="4" fill="#FF3347" fill-opacity="0.08" stroke="#FF3347" stroke-width="1" stroke-opacity="0.4"/>
    <path d="M 9 19 L 19 9 M 11 9 H 19 V 17" stroke="#FF3347" stroke-width="2" stroke-linecap="round" stroke-linejoin="round" fill="none" filter="url(#glow)"/>
  </g>

  <!-- Subtle Right Side Dots -->
  <circle cx="550" cy="65" r="1.5" fill="#FF3347" opacity="0.6"/>
  <circle cx="550" cy="72" r="1.5" fill="#FF3347" opacity="0.8"/>
  <circle cx="550" cy="79" r="1.5" fill="#FF3347" opacity="0.6"/>
</svg>
